# xmcd
#
# Track frame offsets:
#	150
#	10420
#	23003
#	34973
#	49051
#	59267
#	79022
#	89606
#	107075
#	119892
#	135282
#	147193
#	158318
#	171625
#	183485
#
# Disc length: 2584
#
# Revision: 2
# Processed by: cddbd v1.5.1PL0 Copyright (c) Steve Scherf et al.
# Submitted via: EasyCDDAExtractor 5.0.6
# Normalized: r1:DSETVAR1
#
DISCID=c90a160f
DTITLE=Various Artist - UNICA - Viata in Roz
DYEAR=2003
DGENRE=oldies
TTITLE0=BETTY EVERETT - The Shoop Shoop Song
TTITLE1=TINA TURNER - Games people play
TTITLE2=THE SHIRELLES - Baby it's you
TTITLE3=EDITH PIAF - La vie en rose
TTITLE4=LITTLE ANTHNOY and THE IMPERIALS - Tears on my pillow
TTITLE5=AL JARREAU - Lean on me
TTITLE6=FRANKIE LYMON and TENNAGERS - Why do fools fall in love
TTITLE7=PERCY SLEDGE - Try a little tenderness
TTITLE8=DINAH WASHINGTON - Mad about the boy
TTITLE9=MARLENE DIETRICH - Lili Marlene
TTITLE10=THE SKYLINERS - Since i don't have you
TTITLE11=DORIS DAY - I-m in the mood for love
TTITLE12=LYNN ANDERSON - Rose garden
TTITLE13=TINA TURNER - Stand by your man
TTITLE14=LOUIS ARMSTRONG - What A Wonderful World
EXTD=
EXTT0=
EXTT1=
EXTT2=
EXTT3=
EXTT4=
EXTT5=
EXTT6=
EXTT7=
EXTT8=
EXTT9=
EXTT10=
EXTT11=
EXTT12=
EXTT13=
EXTT14=
PLAYORDER=
